P1 
#comentario (opcional)
16 16
0000000000000000
0111111111111110
0101000000001010
0101000000001110
0101000000001010
0101000000001010
0101000000001010
0101000000001010
0100111111110010
0100000000000010
0100111111111010
0100111111001010
0100111111001010
0100111111001010
0011111111111110
0000000000000000